<?xml version="1.0" encoding="UTF-8" standalone="no"?>
<svg
   width="113"
   height="113"
   viewBox="0 0 113 113"
   fill="none"
   version="1.1"
   id="svg332"
   xmlns="http://www.w3.org/2000/svg"
   xmlns:svg="http://www.w3.org/2000/svg">
  <mask
     id="mask0_1_31"
     maskUnits="userSpaceOnUse"
     x="0"
     y="0"
     width="113"
     height="74">
    <path
       d="M 112.098,0 H 0 v 73.972 h 112.098 z"
       fill="#ffffff"
       id="path207" />
  </mask>
  <g
     mask="url(#mask0_1_31)"
     id="g258"
     transform="matrix(1.0080817,0,0,1,0.44901531,19.514)">
    <path
       d="m 112.099,0 -36.3193,61.376 -1.939,3.275 -2.279,3.861 -0.224,0.027 -11.033,-16.783 1.971,-3.35 15.118,-25.578 z"
       fill="url(#paint0_linear_1_31)"
       id="path210"
       style="fill:url(#paint0_linear_1_31)" />
    <g
       style="mix-blend-mode:multiply"
       opacity="0.16"
       id="g214">
      <path
         d="m 75.7797,61.376 -4.218,7.135 -0.224,0.027 -11.033,-16.782 1.97,-3.35 c 3.43,3.27 9.205,8.815 13.505,12.97 z"
         fill="url(#paint1_linear_1_31)"
         id="path212"
         style="fill:url(#paint1_linear_1_31)" />
    </g>
    <path
       d="m 52.1813,39.4089 19.156,29.125 -20.169,2.6361 -9.39,-14.2771 z"
       fill="url(#paint2_linear_1_31)"
       id="path216"
       style="fill:url(#paint2_linear_1_31)" />
    <g
       style="mix-blend-mode:screen"
       opacity="0.3"
       id="g220">
      <path
         d="m 112.098,0 -36.3192,61.376 -1.939,3.275 c -0.82,1.3 -1.662,2.6 -2.5,3.887 1.582,-2.92 3.2,-5.824 4.822,-8.727 1.604,-2.908 3.235,-5.8017 4.893,-8.681 3.31,-5.761 6.565,-11.565 9.934,-17.3 3.333,-5.748 6.73,-11.458 10.1052,-17.181 2.778,-4.632 5.559,-9.26534 8.344,-13.90001 -1.861,1.21 -3.719,2.40001 -5.605,3.57901 l -8.7732,5.555 c -2.92,1.8667 -5.8533,3.703 -8.8,5.509 -2.944,1.829 -5.8879,3.658 -8.8629,5.44 z"
         fill="url(#paint3_linear_1_31)"
         id="path218"
         style="fill:url(#paint3_linear_1_31)" />
    </g>
    <g
       style="mix-blend-mode:screen"
       opacity="0.3"
       id="g224">
      <path
         d="m 52.1812,39.4089 17.609,26.7741 c 0.148,0.265 0.289,0.5209 0.428,0.7919 -0.855,-1.075 -1.672,-2.1749 -2.505,-3.2779 -0.817,-1.1 -1.66,-2.2 -2.449,-3.315 -0.814,-1.115 -1.612,-2.2271 -2.408,-3.3551 -0.78,-1.124 -1.578,-2.236 -2.355,-3.376 -1.556,-2.2666 -3.0893,-4.5453 -4.6,-6.836 -1.264,-1.88 -2.486,-3.7999 -3.712,-5.6999 -1.53,2.4666 -3.087,4.922 -4.671,7.366 -0.932,1.419 -1.849,2.8409 -2.825,4.2339 -0.96,1.4 -1.908,2.812 -2.912,4.183 z"
         fill="url(#paint4_linear_1_31)"
         id="path222"
         style="fill:url(#paint4_linear_1_31)" />
    </g>
    <g
       style="mix-blend-mode:screen"
       opacity="0.15"
       id="g228">
      <path
         d="M 79.2777,24.117 103.632,8.60205 75.9707,55.817 Z"
         fill="url(#paint5_linear_1_31)"
         id="path226"
         style="fill:url(#paint5_linear_1_31)" />
    </g>
    <g
       style="mix-blend-mode:screen"
       opacity="0.15"
       id="g232">
      <path
         d="m 43.6592,56.938 8.63,-12.386 14.988,21.512 z"
         fill="url(#paint6_linear_1_31)"
         id="path230"
         style="fill:url(#paint6_linear_1_31)" />
    </g>
    <path
       d="M 0.00390625,73.9759 36.3229,12.6039 l 1.939,-3.27498 2.279,-3.86099 0.224,-0.02701 11.035,16.77798 -1.971,3.349 -15.125,25.575 z"
       fill="url(#paint7_linear_1_31)"
       id="path234"
       style="fill:url(#paint7_linear_1_31)" />
    <g
       style="mix-blend-mode:multiply"
       opacity="0.16"
       id="g238">
      <path
         d="m 36.3193,12.6 4.218,-7.13598 0.224,-0.02701 11.035,16.77799 -1.971,3.35 C 46.3973,22.29 40.6193,16.75 36.3193,12.6 Z"
         fill="url(#paint8_linear_1_31)"
         id="path236"
         style="fill:url(#paint8_linear_1_31)" />
    </g>
    <path
       d="M 59.9167,34.562 40.7607,5.43704 60.9287,2.80103 70.3188,17.078 Z"
       fill="url(#paint9_linear_1_31)"
       id="path240"
       style="fill:url(#paint9_linear_1_31)" />
    <g
       style="mix-blend-mode:multiply"
       opacity="0.16"
       id="g244">
      <path
         d="M 0.00390625,73.9761 36.3229,12.6051 38.2619,9.33014 c 0.82,-1.3 1.661,-2.6 2.5,-3.888 -1.583,2.92 -3.2,5.82396 -4.822,8.72796 -1.604,2.9074 -3.235,5.8007 -4.893,8.68 -3.31,5.761 -6.565,11.565 -9.935,17.3 -3.332,5.748 -6.729,11.458 -10.105,17.181 -2.778,4.632 -5.55899,9.2654 -8.34299,13.9 1.861,-1.21 3.71898,-2.4 5.60498,-3.578 l 8.77301,-5.556 c 2.9193,-1.8666 5.8527,-3.703 8.8,-5.509 2.944,-1.829 5.888,-3.658 8.863,-5.44 z"
         fill="url(#paint10_linear_1_31)"
         id="path242"
         style="fill:url(#paint10_linear_1_31)" />
    </g>
    <g
       style="mix-blend-mode:multiply"
       opacity="0.3"
       id="g248">
      <path
         d="M 59.917,34.5621 42.304,7.78809 c -0.147,-0.265 -0.289,-0.521 -0.427,-0.792 0.855,1.075 1.672,2.17502 2.5,3.27801 0.817,1.1 1.659,2.2 2.449,3.315 0.814,1.115 1.6119,2.227 2.4079,3.354 0.779,1.125 1.5781,2.237 2.3541,3.377 1.5573,2.2667 3.0906,4.5453 4.6,6.836 1.264,1.88 2.486,3.8 3.712,5.7 1.53,-2.4667 3.0866,-4.922 4.6699,-7.366 0.933,-1.419 1.8501,-2.841 2.8251,-4.234 0.975,-1.393 1.909,-2.812 2.912,-4.183 z"
         fill="url(#paint11_linear_1_31)"
         id="path246"
         style="fill:url(#paint11_linear_1_31)" />
    </g>
    <g
       style="mix-blend-mode:screen"
       opacity="0.3"
       id="g252">
      <path
         d="m 32.8198,49.854 -24.353,15.515 27.66,-47.2149 c 0,0 -0.013,0.5929 -3.307,31.6999 z"
         fill="url(#paint12_linear_1_31)"
         id="path250"
         style="fill:url(#paint12_linear_1_31)" />
    </g>
    <g
       style="mix-blend-mode:screen"
       opacity="0.2"
       id="g256">
      <path
         d="M 68.4374,17.033 59.8034,29.419 44.8154,7.90698 Z"
         fill="url(#paint13_linear_1_31)"
         id="path254"
         style="fill:url(#paint13_linear_1_31)" />
    </g>
  </g>
  <defs
     id="defs330">
    <linearGradient
       id="paint0_linear_1_31"
       x1="172.38699"
       y1="359.556"
       x2="244.12199"
       y2="359.556"
       gradientUnits="userSpaceOnUse">
      <stop
         stop-color="#4B87C7"
         id="stop260" />
      <stop
         offset="1"
         stop-color="#335FBB"
         id="stop262" />
    </linearGradient>
    <linearGradient
       id="paint1_linear_1_31"
       x1="68.042198"
       y1="48.405998"
       x2="68.042198"
       y2="68.538002"
       gradientUnits="userSpaceOnUse">
      <stop
         stop-color="white"
         id="stop265" />
      <stop
         offset="1"
         stop-color="#000AFF"
         id="stop267" />
    </linearGradient>
    <linearGradient
       id="paint2_linear_1_31"
       x1="163.23599"
       y1="342.72699"
       x2="163.23599"
       y2="374.202"
       gradientUnits="userSpaceOnUse">
      <stop
         stop-color="#5563DA"
         id="stop270" />
      <stop
         offset="1"
         stop-color="#0052FF"
         id="stop272" />
    </linearGradient>
    <linearGradient
       id="paint3_linear_1_31"
       x1="91.718903"
       y1="0"
       x2="91.718903"
       y2="68.538002"
       gradientUnits="userSpaceOnUse">
      <stop
         stop-color="white"
         id="stop275" />
      <stop
         offset="1"
         stop-color="#0047FF"
         id="stop277" />
    </linearGradient>
    <linearGradient
       id="paint4_linear_1_31"
       x1="55.999699"
       y1="39.408901"
       x2="55.999699"
       y2="66.974899"
       gradientUnits="userSpaceOnUse">
      <stop
         stop-color="white"
         id="stop280" />
      <stop
         offset="1"
         stop-color="#0047FF"
         id="stop282" />
    </linearGradient>
    <linearGradient
       id="paint5_linear_1_31"
       x1="89.801399"
       y1="8.6020498"
       x2="89.801399"
       y2="55.817001"
       gradientUnits="userSpaceOnUse">
      <stop
         stop-color="white"
         id="stop285" />
      <stop
         offset="1"
         stop-color="#0047FF"
         id="stop287" />
    </linearGradient>
    <linearGradient
       id="paint6_linear_1_31"
       x1="55.468201"
       y1="44.551998"
       x2="55.468201"
       y2="66.064003"
       gradientUnits="userSpaceOnUse">
      <stop
         stop-color="white"
         id="stop290" />
      <stop
         offset="1"
         stop-color="#0047FF"
         id="stop292" />
    </linearGradient>
    <linearGradient
       id="paint7_linear_1_31"
       x1="-1318.3101"
       y1="302.129"
       x2="-1246.5699"
       y2="302.129"
       gradientUnits="userSpaceOnUse">
      <stop
         stop-color="#3995C8"
         id="stop295" />
      <stop
         offset="1"
         stop-color="#087A93"
         id="stop297" />
    </linearGradient>
    <linearGradient
       id="paint8_linear_1_31"
       x1="44.0578"
       y1="5.4370098"
       x2="44.0578"
       y2="25.565001"
       gradientUnits="userSpaceOnUse">
      <stop
         stop-color="white"
         id="stop300" />
      <stop
         offset="1"
         stop-color="#000AFF"
         id="stop302" />
    </linearGradient>
    <linearGradient
       id="paint9_linear_1_31"
       x1="-1327.45"
       y1="285.315"
       x2="-1327.45"
       y2="316.79001"
       gradientUnits="userSpaceOnUse">
      <stop
         stop-color="#344AC1"
         id="stop305" />
      <stop
         offset="1"
         stop-color="#413494"
         id="stop307" />
    </linearGradient>
    <linearGradient
       id="paint10_linear_1_31"
       x1="20.3829"
       y1="5.4421401"
       x2="20.3829"
       y2="73.976097"
       gradientUnits="userSpaceOnUse">
      <stop
         stop-color="white"
         id="stop310" />
      <stop
         offset="1"
         stop-color="#000AFF"
         id="stop312" />
    </linearGradient>
    <linearGradient
       id="paint11_linear_1_31"
       x1="56.091999"
       y1="6.9960899"
       x2="56.091999"
       y2="34.562099"
       gradientUnits="userSpaceOnUse">
      <stop
         stop-color="white"
         id="stop315" />
      <stop
         offset="1"
         stop-color="#000AFF"
         id="stop317" />
    </linearGradient>
    <linearGradient
       id="paint12_linear_1_31"
       x1="22.296801"
       y1="18.1541"
       x2="22.296801"
       y2="65.369003"
       gradientUnits="userSpaceOnUse">
      <stop
         stop-color="white"
         id="stop320" />
      <stop
         offset="1"
         stop-color="#0047FF"
         id="stop322" />
    </linearGradient>
    <linearGradient
       id="paint13_linear_1_31"
       x1="56.6264"
       y1="7.90698"
       x2="56.6264"
       y2="29.419001"
       gradientUnits="userSpaceOnUse">
      <stop
         stop-color="white"
         id="stop325" />
      <stop
         offset="1"
         stop-color="#0047FF"
         id="stop327" />
    </linearGradient>
  </defs>
</svg>
